<?xml version="1.0" encoding="UTF-8" standalone="no"?><!-- Generator: Gravit.io --><svg xmlns="http://www.w3.org/2000/svg" xmlns:xlink="http://www.w3.org/1999/xlink" style="isolation:isolate" viewBox="291.408 1153 2417.184 372.858" width="2417.184pt" height="372.858pt"><path d=" M 654.678 1219.049 L 620.588 1219.049 L 620.588 1516.27 L 556.67 1516.27 L 401.135 1313.862 L 401.135 1450.221 L 435.225 1450.221 L 435.225 1516.27 L 291.408 1516.27 L 291.408 1450.221 L 325.498 1450.221 L 325.498 1219.049 L 291.408 1219.049 L 291.408 1153 L 401.135 1153 L 546.017 1341.56 L 546.017 1219.049 L 511.927 1219.049 L 511.927 1153 L 655.743 1153 C 654.678 1153 654.678 1219.049 654.678 1219.049 L 654.678 1219.049 Z  M 882.654 1388.433 C 882.654 1393.76 882.654 1399.086 882.654 1405.478 L 723.923 1405.478 C 719.662 1456.613 738.837 1471.527 767.601 1471.527 C 792.103 1471.527 810.213 1455.547 810.213 1429.98 L 878.393 1429.98 C 877.327 1474.723 853.891 1525.858 763.339 1525.858 C 673.854 1525.858 632.307 1460.874 632.307 1388.433 C 632.307 1323.449 674.919 1254.204 762.274 1254.204 C 845.368 1254.204 882.654 1312.796 882.654 1388.433 Z  M 1274.687 1323.449 L 1251.251 1323.449 L 1192.659 1520.531 L 1114.891 1520.531 L 1078.671 1412.935 L 1045.646 1520.531 L 966.813 1520.531 L 901.83 1323.449 L 878.393 1323.449 L 878.393 1256.335 L 1015.817 1256.335 L 1015.817 1323.449 L 981.728 1323.449 L 1017.948 1427.849 L 1064.822 1256.335 L 1107.434 1256.335 L 1164.961 1427.849 L 1195.855 1323.449 L 1161.765 1323.449 L 1161.765 1256.335 L 1276.818 1256.335 C 1274.687 1256.335 1274.687 1323.449 1274.687 1323.449 L 1274.687 1323.449 Z  M 1371.63 1325.58 C 1371.63 1335.168 1379.087 1341.56 1404.655 1349.017 L 1441.941 1360.735 C 1476.031 1372.453 1517.578 1396.956 1517.578 1443.829 C 1517.578 1498.16 1477.096 1524.793 1425.961 1524.793 C 1385.479 1524.793 1354.585 1505.617 1346.063 1496.029 L 1346.063 1518.401 L 1278.949 1518.401 L 1278.949 1426.784 L 1344.998 1426.784 C 1347.128 1456.613 1373.761 1472.592 1397.198 1472.592 C 1416.373 1472.592 1425.961 1464.07 1425.961 1454.482 C 1425.961 1442.764 1418.504 1435.307 1385.479 1424.654 L 1352.455 1414 C 1319.43 1403.347 1282.144 1378.845 1282.144 1334.102 C 1282.144 1279.772 1330.083 1253.139 1370.565 1253.139 C 1413.177 1253.139 1433.418 1264.857 1444.071 1276.576 L 1444.071 1256.335 L 1511.186 1256.335 L 1511.186 1338.364 L 1441.941 1338.364 C 1440.875 1315.992 1419.569 1306.404 1397.198 1306.404 C 1379.087 1307.47 1371.63 1314.927 1371.63 1325.58 L 1371.63 1325.58 Z  M 1919.199 1323.449 L 1895.762 1323.449 L 1837.17 1520.531 L 1759.402 1520.531 L 1723.182 1412.935 L 1690.157 1520.531 L 1611.325 1520.531 L 1546.341 1323.449 L 1522.904 1323.449 L 1522.904 1256.335 L 1660.329 1256.335 L 1660.329 1323.449 L 1626.239 1323.449 L 1662.459 1427.849 L 1708.268 1256.335 L 1750.88 1256.335 L 1808.407 1427.849 L 1839.301 1323.449 L 1804.145 1323.449 L 1804.145 1256.335 L 1919.199 1256.335 L 1919.199 1323.449 L 1919.199 1323.449 Z  M 2162.089 1388.433 C 2162.089 1393.76 2162.089 1399.086 2162.089 1405.478 L 2004.423 1405.478 C 2000.162 1456.613 2019.338 1471.527 2048.101 1471.527 C 2072.603 1471.527 2090.713 1455.547 2090.713 1429.98 L 2158.893 1429.98 C 2157.828 1474.723 2133.326 1525.858 2043.84 1525.858 C 1953.289 1525.858 1911.742 1460.874 1911.742 1388.433 C 1911.742 1323.449 1955.419 1254.204 2042.774 1254.204 C 2125.868 1254.204 2162.089 1311.731 2162.089 1388.433 Z  M 2422.024 1387.368 C 2422.024 1392.694 2422.024 1398.021 2422.024 1404.413 L 2264.358 1404.413 C 2260.097 1455.547 2279.273 1470.462 2308.036 1470.462 C 2332.538 1470.462 2350.648 1454.482 2350.648 1428.915 L 2418.828 1428.915 C 2417.763 1473.658 2393.261 1524.793 2303.775 1524.793 C 2213.224 1524.793 2171.677 1459.809 2171.677 1387.368 C 2171.677 1322.384 2215.354 1253.139 2302.71 1253.139 C 2385.804 1253.139 2422.024 1310.666 2422.024 1387.368 Z  M 2708.592 1519.466 L 2629.759 1519.466 L 2547.73 1411.87 L 2521.098 1432.111 L 2521.098 1453.417 L 2544.534 1453.417 L 2544.534 1520.531 L 2422.024 1520.531 L 2422.024 1454.482 L 2445.461 1454.482 L 2445.461 1220.114 L 2411.371 1220.114 L 2411.371 1153 L 2521.098 1153 L 2521.098 1363.931 L 2576.494 1323.449 L 2542.404 1323.449 L 2542.404 1256.335 L 2688.351 1256.335 L 2688.351 1323.449 L 2664.914 1323.449 L 2607.388 1366.062 L 2673.437 1452.352 L 2707.527 1452.352 C 2708.592 1453.417 2708.592 1519.466 2708.592 1519.466 L 2708.592 1519.466 Z  M 2264.358 1361.8 L 2350.648 1361.8 C 2350.648 1324.515 2326.146 1309.6 2309.101 1309.6 C 2287.795 1309.6 2265.424 1326.645 2264.358 1361.8 Z  M 2004.423 1361.8 L 2090.713 1361.8 C 2090.713 1324.515 2066.211 1309.6 2048.101 1309.6 C 2027.86 1310.666 2005.489 1327.711 2004.423 1361.8 L 2004.423 1361.8 L 2004.423 1361.8 Z  M 724.988 1362.866 L 811.278 1362.866 C 811.278 1325.58 786.776 1310.666 768.666 1310.666 C 747.36 1310.666 726.054 1327.711 724.988 1362.866 L 724.988 1362.866 Z " fill="rgb(255,255,255)"/></svg>